# xmcd CD database file generated by OrangeCD 4.2
#
# Track frame offsets:
#	150
#	15589
#	31925
#	46441
#	61541
#	76000
#	91784
#	104572
#	120906
#	137107
#	152995
#	167948
#	182850
#	202323
#
# Disc length: 2853 seconds
#
# Revision: 0
# Processed by: cddbd v1.4PL0 Copyright (c) Steve Scherf et al.
# Submitted via: OrangeCD 4.2
#
DISCID=b20b230e
DTITLE=The Handsome Family - Odessa
DYEAR=1900
DGENRE=Country
TTITLE0=Here's Hopin'
TTITLE1=Arlene
TTITLE2=Pony
TTITLE3=One Way Up
TTITLE4=Water Into Wine
TTITLE5=Giant Ant
TTITLE6=Everything That Rises Must Converge
TTITLE7=Gorilla
TTITLE8=The Last
TTITLE9=Claire Said
TTITLE10=Moving Furniture Around
TTITLE11=Big Bad Wolf
TTITLE12=She Awoke With A Jerk
TTITLE13=Happy Harvest
EXTD=
EXTT0=
EXTT1=
EXTT2=
EXTT3=
EXTT4=
EXTT5=
EXTT6=
EXTT7=
EXTT8=
EXTT9=
EXTT10=
EXTT11=
EXTT12=
EXTT13=
PLAYORDER=
